<svg xmlns="http://www.w3.org/2000/svg" xmlns:xlink="http://www.w3.org/1999/xlink" width="43" zoomAndPan="magnify" viewBox="0 0 32.25 40.5" height="54" preserveAspectRatio="xMidYMid meet" version="1.0"><defs><clipPath id="eaeabf60c7"><path d="M 0.714844 8.050781 L 27.753906 8.050781 L 27.753906 38 L 0.714844 38 Z M 0.714844 8.050781 " clip-rule="nonzero"/></clipPath><clipPath id="64d6f35a92"><path d="M 0.714844 8.050781 L 27.753906 8.050781 L 27.753906 38.101562 L 0.714844 38.101562 Z M 0.714844 8.050781 " clip-rule="nonzero"/></clipPath><clipPath id="50372dd8e8"><path d="M 0.714844 24 L 5 24 L 5 26 L 0.714844 26 Z M 0.714844 24 " clip-rule="nonzero"/></clipPath><clipPath id="49ce52b20d"><path d="M 23 1.792969 L 31 1.792969 L 31 13 L 23 13 Z M 23 1.792969 " clip-rule="nonzero"/></clipPath><clipPath id="59df5dbb42"><path d="M 9.257812 11 L 31 11 L 31 16 L 9.257812 16 Z M 9.257812 11 " clip-rule="nonzero"/></clipPath><clipPath id="bf72c51dd0"><path d="M 9.257812 3 L 30 3 L 30 16.449219 L 9.257812 16.449219 Z M 9.257812 3 " clip-rule="nonzero"/></clipPath><clipPath id="648649e471"><path d="M 9.257812 5 L 28 5 L 28 15 L 9.257812 15 Z M 9.257812 5 " clip-rule="nonzero"/></clipPath><clipPath id="8e2691fed9"><path d="M 23 1.792969 L 31 1.792969 L 31 10 L 23 10 Z M 23 1.792969 " clip-rule="nonzero"/></clipPath></defs><g clip-path="url(#eaeabf60c7)"><path fill="#fdd6b7" d="M 18.472656 34.464844 L 19.457031 34.488281 L 20.976562 35.128906 L 22.765625 34.941406 C 25.378906 32.757812 27.242188 27.351562 27.378906 26.765625 C 27.511719 26.179688 24.683594 20.238281 24.683594 20.238281 C 24.898438 18.183594 22.390625 13.417969 22.390625 13.417969 L 21.832031 10.566406 L 16.496094 8.433594 L 12.898438 10.859375 L 13.671875 12.671875 L 13.539062 14.457031 L 16.496094 15.679688 L 18.179688 14.988281 L 19.03125 14.5625 L 19.910156 15.761719 C 20.285156 17.332031 17.699219 24.257812 17.699219 24.257812 L 17.699219 25.085938 L 16.699219 24.832031 C 13.058594 20.597656 7.140625 23.394531 7.140625 23.394531 C 4.660156 20.914062 1.21875 22.355469 1.21875 22.355469 C 1.148438 22.125 0.992188 21.902344 0.785156 21.695312 C 0.738281 22.203125 0.710938 22.714844 0.710938 23.234375 C 0.710938 29.703125 4.472656 35.292969 9.933594 37.941406 C 10.4375 37.078125 10.84375 36.40625 10.84375 36.40625 C 15.03125 36.40625 18.472656 34.464844 18.472656 34.464844 " fill-opacity="1" fill-rule="nonzero"/></g><path fill="#ffe2d2" d="M 11.261719 23.109375 C 10.28125 23.128906 9.386719 23.386719 8.535156 23.863281 C 7.757812 24.296875 8.289062 25.636719 9.152344 25.320312 C 9.898438 25.050781 10.722656 25.039062 11.511719 25.011719 C 12.21875 24.988281 13.070312 25.097656 13.601562 24.535156 C 13.769531 24.355469 13.855469 24.027344 13.691406 23.8125 C 13.125 23.058594 12.128906 23.09375 11.261719 23.109375 " fill-opacity="1" fill-rule="nonzero"/><path fill="#eeb387" d="M 16.097656 35.527344 L 16.015625 35.480469 C 16.015625 35.480469 13.003906 34.597656 12.097656 34.597656 C 11.191406 34.597656 8.777344 33.316406 7.71875 35.714844 C 7.617188 35.945312 7.507812 36.175781 7.390625 36.410156 C 8.15625 36.96875 8.96875 37.46875 9.828125 37.890625 L 10.816406 36.300781 L 16.097656 35.527344 " fill-opacity="1" fill-rule="nonzero"/><path fill="#ffe1cc" d="M 6.316406 30.484375 C 5.136719 29.546875 3.417969 28.464844 1.4375 28.0625 C 2.394531 31.160156 4.25 33.867188 6.699219 35.875 C 6.945312 35.339844 7.175781 34.765625 7.386719 34.144531 C 7.839844 32.820312 7.414062 31.355469 6.316406 30.484375 " fill-opacity="1" fill-rule="nonzero"/><path fill="#ffe1cc" d="M 24.011719 22.921875 C 23.054688 23.085938 22.511719 24.589844 22.800781 26.285156 C 23.09375 27.980469 24.101562 29.222656 25.0625 29.0625 C 26.019531 28.898438 26.5625 27.390625 26.273438 25.695312 C 25.984375 24 24.972656 22.757812 24.011719 22.921875 " fill-opacity="1" fill-rule="nonzero"/><g clip-path="url(#64d6f35a92)"><path fill="#dd9666" d="M 18.550781 34.789062 L 19.386719 34.8125 L 20.929688 35.460938 L 22.894531 35.253906 L 22.972656 35.191406 C 25.695312 32.914062 27.566406 27.390625 27.695312 26.835938 C 27.828125 26.238281 26.089844 22.445312 25.015625 20.175781 C 25.152344 18.097656 22.960938 13.8125 22.699219 13.308594 L 22.117188 10.328125 L 16.457031 8.070312 L 12.496094 10.738281 L 13.34375 12.726562 L 13.195312 14.664062 L 16.496094 16.03125 L 18.300781 15.289062 L 18.929688 14.972656 L 19.605469 15.894531 C 19.828125 17.207031 18.09375 22.273438 17.394531 24.144531 L 17.375 24.199219 L 17.375 24.667969 L 16.875 24.542969 C 15.320312 22.78125 13.128906 21.972656 10.523438 22.203125 C 8.957031 22.339844 7.6875 22.808594 7.207031 23.007812 C 5.0625 21.03125 2.296875 21.667969 1.394531 21.949219 C 1.257812 21.714844 1.058594 21.496094 0.824219 21.296875 C 0.792969 21.578125 0.765625 21.859375 0.746094 22.148438 C 0.824219 22.246094 0.878906 22.347656 0.910156 22.449219 L 1.011719 22.792969 L 1.34375 22.652344 C 1.476562 22.597656 4.617188 21.332031 6.910156 23.621094 L 7.070312 23.785156 L 7.277344 23.6875 C 7.335938 23.660156 13.019531 21.046875 16.453125 25.042969 L 16.519531 25.121094 L 18.023438 25.5 L 18.023438 24.316406 C 18.371094 23.378906 20.601562 17.273438 20.226562 15.6875 L 20.210938 15.621094 L 19.128906 14.148438 L 18.042969 14.691406 L 16.5 15.328125 L 13.878906 14.246094 L 14 12.617188 L 13.300781 10.976562 L 16.535156 8.800781 L 21.546875 10.800781 L 22.082031 13.523438 L 22.105469 13.566406 C 22.128906 13.613281 24.5625 18.269531 24.359375 20.203125 L 24.351562 20.292969 L 24.390625 20.375 C 25.699219 23.128906 27.050781 26.234375 27.058594 26.707031 C 26.914062 27.289062 25.117188 32.480469 22.628906 34.632812 L 21.027344 34.796875 L 19.527344 34.167969 L 18.390625 34.136719 L 18.3125 34.179688 C 18.277344 34.199219 14.890625 36.085938 10.84375 36.085938 L 10.664062 36.085938 L 10.566406 36.238281 C 10.414062 36.492188 10.054688 37.085938 9.640625 37.796875 C 9.832031 37.894531 10.027344 37.992188 10.226562 38.082031 C 10.503906 37.601562 10.78125 37.136719 11.027344 36.730469 C 14.867188 36.679688 18 35.085938 18.550781 34.789062 " fill-opacity="1" fill-rule="nonzero"/></g><g clip-path="url(#50372dd8e8)"><path fill="#dd9666" d="M 1.378906 24.691406 C 1.464844 24.691406 1.5625 24.695312 1.609375 24.703125 C 1.636719 24.695312 1.6875 24.722656 1.730469 24.734375 C 1.75 24.746094 1.710938 24.726562 1.71875 24.730469 L 1.773438 24.757812 L 1.839844 24.789062 C 2.015625 24.871094 2.183594 24.925781 2.34375 24.972656 C 2.667969 25.0625 2.953125 25.113281 3.207031 25.15625 C 3.457031 25.195312 3.671875 25.21875 3.84375 25.234375 C 4.191406 25.265625 4.378906 25.273438 4.378906 25.273438 C 4.378906 25.273438 4.195312 25.234375 3.859375 25.152344 C 3.523438 25.066406 3.023438 24.949219 2.4375 24.710938 C 2.289062 24.652344 2.140625 24.582031 2 24.496094 L 1.945312 24.460938 L 1.917969 24.445312 L 1.90625 24.4375 L 1.898438 24.433594 L 1.871094 24.417969 C 1.828125 24.398438 1.800781 24.375 1.730469 24.359375 C 1.667969 24.339844 1.597656 24.324219 1.550781 24.320312 C 1.5 24.3125 1.445312 24.300781 1.394531 24.300781 C 1.183594 24.28125 0.96875 24.285156 0.746094 24.296875 C 0.757812 24.449219 0.769531 24.601562 0.78125 24.753906 C 0.988281 24.71875 1.191406 24.699219 1.378906 24.691406 " fill-opacity="1" fill-rule="nonzero"/></g><path fill="#dd9666" d="M 8.777344 34.3125 C 8.8125 34.273438 8.847656 34.234375 8.882812 34.203125 C 8.917969 34.171875 8.957031 34.140625 8.992188 34.113281 C 9.023438 34.082031 9.058594 34.058594 9.09375 34.03125 C 9.125 34.003906 9.15625 33.980469 9.191406 33.960938 C 9.25 33.910156 9.308594 33.875 9.363281 33.832031 C 9.417969 33.796875 9.46875 33.757812 9.503906 33.730469 C 9.582031 33.664062 9.617188 33.625 9.617188 33.625 C 9.617188 33.625 9.566406 33.605469 9.46875 33.589844 C 9.421875 33.582031 9.359375 33.570312 9.289062 33.570312 C 9.214844 33.570312 9.125 33.570312 9.03125 33.597656 C 8.980469 33.609375 8.929688 33.625 8.878906 33.648438 C 8.828125 33.667969 8.773438 33.695312 8.722656 33.726562 C 8.671875 33.761719 8.617188 33.796875 8.566406 33.84375 C 8.515625 33.886719 8.464844 33.933594 8.414062 33.988281 C 8.363281 34.039062 8.316406 34.109375 8.265625 34.175781 C 8.242188 34.207031 8.226562 34.234375 8.207031 34.265625 L 8.179688 34.308594 L 8.160156 34.34375 L 8.148438 34.367188 C 8.078125 34.492188 8.003906 34.628906 7.925781 34.769531 C 7.695312 35.1875 7.425781 35.671875 7.128906 36.210938 C 7.277344 36.324219 7.425781 36.4375 7.582031 36.546875 C 7.878906 35.96875 8.148438 35.453125 8.375 35.007812 C 8.523438 34.730469 8.652344 34.433594 8.777344 34.3125 " fill-opacity="1" fill-rule="nonzero"/><path fill="#dd9666" d="M 18.375 30.273438 L 18.046875 30.210938 L 18.222656 30.34375 C 18.273438 30.320312 18.324219 30.296875 18.375 30.273438 " fill-opacity="1" fill-rule="nonzero"/><path fill="#dd9666" d="M 18.386719 29.6875 L 18.140625 29.726562 C 18.015625 29.75 17.898438 29.78125 17.773438 29.804688 L 17.382812 29.878906 C 17.121094 29.933594 16.851562 29.972656 16.589844 30.023438 C 16.324219 30.074219 16.058594 30.117188 15.792969 30.164062 C 15.53125 30.214844 15.265625 30.253906 15 30.300781 C 14.734375 30.351562 14.472656 30.390625 14.207031 30.433594 C 14.078125 30.453125 13.941406 30.476562 13.8125 30.496094 L 13.433594 30.546875 C 13.304688 30.5625 13.183594 30.582031 13.050781 30.59375 L 12.640625 30.625 L 12.445312 30.640625 L 12.457031 30.640625 C 12.414062 30.640625 12.449219 30.640625 12.4375 30.640625 L 12.445312 30.640625 L 12.386719 30.640625 C 12.363281 30.640625 12.339844 30.636719 12.3125 30.632812 C 12.210938 30.628906 12.097656 30.605469 11.980469 30.578125 C 11.753906 30.519531 11.515625 30.433594 11.277344 30.332031 C 11.039062 30.230469 10.800781 30.121094 10.5625 30.003906 C 10.085938 29.765625 9.605469 29.511719 9.113281 29.261719 C 8.871094 29.136719 8.621094 29.015625 8.355469 28.910156 C 8.226562 28.859375 8.089844 28.808594 7.945312 28.769531 C 7.871094 28.746094 7.796875 28.730469 7.714844 28.71875 C 7.671875 28.714844 7.636719 28.710938 7.578125 28.714844 C 7.550781 28.714844 7.519531 28.714844 7.5 28.71875 L 7.449219 28.734375 L 7.4375 28.734375 L 7.410156 28.742188 L 7.40625 28.742188 L 7.382812 28.75 L 7.339844 28.765625 L 7.246094 28.792969 L 7.15625 28.820312 L 7.0625 28.839844 C 6.933594 28.867188 6.804688 28.882812 6.671875 28.898438 C 6.402344 28.921875 6.132812 28.925781 5.859375 28.910156 C 6.117188 29 6.390625 29.058594 6.667969 29.09375 L 6.878906 29.109375 C 6.949219 29.117188 7.019531 29.113281 7.089844 29.113281 L 7.199219 29.113281 L 7.304688 29.101562 L 7.46875 29.078125 L 7.496094 29.078125 L 7.503906 29.074219 C 7.46875 29.082031 7.496094 29.078125 7.488281 29.078125 L 7.503906 29.078125 L 7.554688 29.074219 C 7.570312 29.078125 7.574219 29.082031 7.582031 29.082031 L 7.644531 29.101562 C 7.695312 29.117188 7.75 29.136719 7.804688 29.164062 C 7.917969 29.214844 8.03125 29.277344 8.144531 29.34375 C 8.367188 29.480469 8.589844 29.628906 8.8125 29.777344 L 9.488281 30.238281 C 9.714844 30.386719 9.945312 30.539062 10.183594 30.683594 C 10.421875 30.828125 10.664062 30.972656 10.917969 31.101562 C 11.175781 31.226562 11.441406 31.351562 11.734375 31.441406 C 11.882812 31.484375 12.035156 31.527344 12.203125 31.550781 C 12.242188 31.558594 12.285156 31.5625 12.332031 31.5625 L 12.394531 31.570312 L 12.445312 31.570312 L 12.453125 31.574219 L 12.457031 31.574219 L 12.484375 31.570312 L 13.09375 31.546875 C 13.234375 31.542969 13.378906 31.519531 13.519531 31.503906 L 13.949219 31.453125 C 14.089844 31.433594 14.222656 31.410156 14.363281 31.386719 C 14.632812 31.339844 14.90625 31.292969 15.175781 31.234375 C 15.445312 31.175781 15.714844 31.121094 15.980469 31.054688 C 16.25 30.984375 16.515625 30.917969 16.78125 30.839844 C 16.914062 30.804688 17.042969 30.761719 17.175781 30.722656 C 17.308594 30.679688 17.441406 30.640625 17.574219 30.59375 L 17.964844 30.453125 C 18.050781 30.417969 18.136719 30.382812 18.222656 30.34375 L 18.046875 30.210938 L 18.375 30.273438 C 18.324219 30.296875 18.273438 30.320312 18.222656 30.34375 L 19.308594 31.164062 L 19.421875 31.050781 L 18.46875 29.792969 L 18.386719 29.6875 " fill-opacity="1" fill-rule="nonzero"/><path fill="#dd9666" d="M 24.65625 29.113281 C 24.578125 29.203125 24.492188 29.296875 24.40625 29.394531 C 24.363281 29.441406 24.320312 29.492188 24.277344 29.542969 C 24.234375 29.59375 24.195312 29.648438 24.152344 29.703125 C 24.070312 29.8125 23.984375 29.921875 23.898438 30.03125 C 23.859375 30.085938 23.8125 30.140625 23.773438 30.199219 C 23.734375 30.253906 23.695312 30.3125 23.65625 30.367188 C 23.578125 30.480469 23.503906 30.59375 23.429688 30.703125 C 23.351562 30.808594 23.285156 30.917969 23.222656 31.019531 C 23.160156 31.121094 23.101562 31.21875 23.046875 31.304688 C 22.933594 31.484375 22.847656 31.632812 22.789062 31.742188 C 22.726562 31.847656 22.691406 31.90625 22.691406 31.90625 C 22.691406 31.90625 22.671875 31.972656 22.632812 32.085938 C 22.589844 32.203125 22.539062 32.367188 22.476562 32.566406 C 22.417969 32.765625 22.34375 32.996094 22.273438 33.242188 L 22.257812 33.289062 L 22.257812 33.308594 L 22.25 33.34375 C 22.246094 33.375 22.242188 33.40625 22.238281 33.433594 L 22.226562 33.484375 L 22.222656 33.511719 L 22.199219 33.507812 L 22.105469 33.472656 L 21.996094 33.429688 C 21.949219 33.414062 21.902344 33.394531 21.859375 33.375 C 21.730469 33.324219 21.605469 33.269531 21.488281 33.222656 C 21.25 33.117188 21.019531 33.042969 20.828125 32.96875 C 20.632812 32.898438 20.46875 32.84375 20.355469 32.804688 C 20.242188 32.765625 20.179688 32.746094 20.179688 32.746094 C 20.179688 32.746094 20.238281 32.777344 20.339844 32.839844 C 20.445312 32.898438 20.59375 32.984375 20.769531 33.089844 C 20.941406 33.199219 21.152344 33.316406 21.363281 33.460938 C 21.46875 33.53125 21.578125 33.601562 21.6875 33.675781 C 21.835938 33.78125 21.988281 33.886719 22.140625 33.996094 C 22.226562 34.054688 22.308594 34.113281 22.394531 34.171875 L 22.425781 34.191406 L 22.445312 34.203125 C 22.449219 34.207031 22.457031 34.214844 22.457031 34.207031 L 22.488281 34.136719 L 22.554688 34.003906 C 22.601562 33.90625 22.644531 33.8125 22.6875 33.722656 C 22.710938 33.671875 22.734375 33.625 22.757812 33.578125 L 22.789062 33.503906 L 22.8125 33.460938 C 22.929688 33.234375 23.046875 33.027344 23.140625 32.847656 C 23.238281 32.667969 23.320312 32.519531 23.378906 32.417969 C 23.4375 32.3125 23.472656 32.253906 23.472656 32.253906 C 23.472656 32.253906 23.492188 32.191406 23.53125 32.078125 C 23.566406 31.964844 23.621094 31.808594 23.695312 31.621094 C 23.730469 31.523438 23.769531 31.421875 23.808594 31.3125 C 23.847656 31.203125 23.890625 31.089844 23.945312 30.976562 C 23.992188 30.859375 24.042969 30.738281 24.097656 30.617188 C 24.125 30.558594 24.148438 30.496094 24.175781 30.433594 C 24.203125 30.371094 24.234375 30.3125 24.265625 30.253906 C 24.324219 30.132812 24.382812 30.011719 24.445312 29.890625 C 24.472656 29.832031 24.503906 29.773438 24.53125 29.714844 C 24.566406 29.65625 24.597656 29.601562 24.628906 29.546875 C 24.695312 29.4375 24.753906 29.332031 24.8125 29.230469 C 24.875 29.128906 24.925781 29.03125 24.988281 28.949219 C 25.222656 28.613281 25.378906 28.390625 25.378906 28.390625 C 25.378906 28.390625 25.179688 28.582031 24.882812 28.867188 C 24.804688 28.9375 24.734375 29.023438 24.65625 29.113281 " fill-opacity="1" fill-rule="nonzero"/><path fill="#dd9666" d="M 14.457031 35.121094 L 14.539062 35.113281 L 14.539062 34.976562 C 14.515625 34.988281 14.492188 35 14.464844 35.011719 C 14.464844 35.046875 14.460938 35.082031 14.457031 35.121094 " fill-opacity="1" fill-rule="nonzero"/><path fill="#dd9666" d="M 13.960938 34.324219 C 13.765625 34.328125 13.566406 34.328125 13.367188 34.324219 C 12.96875 34.316406 12.5625 34.296875 12.15625 34.296875 C 11.949219 34.296875 11.746094 34.296875 11.535156 34.308594 C 11.335938 34.324219 11.140625 34.339844 10.957031 34.320312 C 10.769531 34.300781 10.59375 34.238281 10.460938 34.097656 C 10.328125 33.960938 10.242188 33.773438 10.179688 33.585938 C 10.210938 33.78125 10.261719 33.984375 10.382812 34.160156 C 10.5 34.34375 10.707031 34.464844 10.914062 34.519531 C 11.121094 34.578125 11.332031 34.597656 11.535156 34.617188 C 11.726562 34.636719 11.921875 34.671875 12.117188 34.703125 C 12.511719 34.773438 12.902344 34.855469 13.304688 34.933594 C 13.503906 34.972656 13.707031 35.007812 13.910156 35.039062 C 14.070312 35.0625 14.234375 35.082031 14.398438 35.035156 L 14.457031 34.300781 C 14.292969 34.3125 14.128906 34.320312 13.960938 34.324219 " fill-opacity="1" fill-rule="nonzero"/><path fill="#dd9666" d="M 14.457031 34.289062 L 14.457031 34.300781 L 14.472656 34.296875 Z M 14.457031 34.289062 " fill-opacity="1" fill-rule="nonzero"/><path fill="#dd9666" d="M 14.464844 35.011719 C 14.492188 35 14.515625 34.988281 14.539062 34.976562 L 14.539062 34.339844 L 14.519531 34.328125 C 14.503906 34.554688 14.484375 34.78125 14.464844 35.011719 " fill-opacity="1" fill-rule="nonzero"/><path fill="#dd9666" d="M 14.539062 34.339844 L 14.539062 34.292969 L 14.523438 34.292969 C 14.523438 34.304688 14.523438 34.316406 14.519531 34.328125 L 14.539062 34.339844 " fill-opacity="1" fill-rule="nonzero"/><path fill="#dd9666" d="M 16.765625 33.660156 C 16.472656 33.8125 16.203125 33.972656 15.949219 34.09375 C 15.695312 34.21875 15.46875 34.296875 15.277344 34.324219 C 15.085938 34.355469 14.925781 34.339844 14.8125 34.328125 C 14.699219 34.3125 14.632812 34.296875 14.632812 34.296875 C 14.597656 34.296875 14.5625 34.292969 14.523438 34.289062 L 14.523438 34.292969 L 14.539062 34.292969 L 14.539062 35.113281 L 14.457031 35.121094 C 14.460938 35.082031 14.464844 35.046875 14.464844 35.011719 C 14.445312 35.019531 14.421875 35.027344 14.398438 35.035156 L 14.394531 35.109375 C 14.441406 35.121094 14.488281 35.132812 14.539062 35.144531 C 14.539062 35.144531 14.628906 35.152344 14.792969 35.144531 C 14.953125 35.136719 15.191406 35.109375 15.457031 35.019531 C 15.722656 34.933594 16 34.777344 16.25 34.59375 C 16.503906 34.414062 16.746094 34.207031 16.988281 34.023438 C 17.480469 33.660156 18.03125 33.34375 18.433594 33.09375 C 18.839844 32.847656 19.097656 32.664062 19.097656 32.664062 C 19.097656 32.664062 18.8125 32.800781 18.375 32.976562 C 17.9375 33.15625 17.34375 33.371094 16.765625 33.660156 " fill-opacity="1" fill-rule="nonzero"/><path fill="#dd9666" d="M 14.519531 34.328125 L 14.472656 34.296875 L 14.457031 34.300781 L 14.398438 35.035156 C 14.421875 35.027344 14.445312 35.019531 14.464844 35.011719 C 14.484375 34.78125 14.503906 34.554688 14.519531 34.328125 " fill-opacity="1" fill-rule="nonzero"/><path fill="#dd9666" d="M 14.523438 34.292969 C 14.507812 34.296875 14.492188 34.296875 14.472656 34.296875 L 14.519531 34.328125 C 14.523438 34.316406 14.523438 34.304688 14.523438 34.292969 " fill-opacity="1" fill-rule="nonzero"/><path fill="#dd9666" d="M 10.242188 27.023438 C 10.105469 26.992188 9.949219 26.957031 9.78125 26.90625 C 9.617188 26.863281 9.441406 26.800781 9.269531 26.742188 C 9.097656 26.679688 8.925781 26.617188 8.765625 26.550781 C 8.605469 26.488281 8.457031 26.425781 8.332031 26.371094 C 8.074219 26.261719 7.90625 26.1875 7.90625 26.1875 C 7.90625 26.1875 7.71875 26.164062 7.441406 26.128906 C 7.160156 26.089844 6.785156 26.046875 6.410156 26.011719 C 6.21875 26 6.03125 25.980469 5.851562 25.976562 C 5.675781 25.96875 5.507812 25.96875 5.367188 25.96875 C 5.226562 25.96875 5.109375 25.980469 5.027344 25.984375 C 4.945312 25.988281 4.898438 25.992188 4.898438 25.992188 C 4.898438 25.992188 4.945312 26.003906 5.023438 26.019531 C 5.105469 26.042969 5.21875 26.0625 5.351562 26.101562 C 5.484375 26.140625 5.640625 26.183594 5.804688 26.242188 C 5.96875 26.292969 6.140625 26.363281 6.3125 26.425781 C 6.65625 26.5625 6.992188 26.707031 7.25 26.820312 C 7.507812 26.933594 7.675781 27.007812 7.675781 27.007812 C 7.675781 27.007812 7.863281 27.03125 8.144531 27.066406 C 8.289062 27.082031 8.453125 27.101562 8.628906 27.117188 C 8.804688 27.136719 9 27.148438 9.1875 27.160156 C 9.378906 27.167969 9.566406 27.179688 9.746094 27.175781 C 9.925781 27.175781 10.089844 27.164062 10.230469 27.15625 C 10.371094 27.152344 10.488281 27.132812 10.570312 27.125 C 10.652344 27.117188 10.699219 27.109375 10.699219 27.109375 C 10.699219 27.109375 10.652344 27.101562 10.570312 27.089844 C 10.492188 27.070312 10.375 27.058594 10.242188 27.023438 " fill-opacity="1" fill-rule="nonzero"/><path fill="#dd9666" d="M 17.570312 13.503906 C 17.484375 13.5 17.382812 13.488281 17.273438 13.476562 C 17.164062 13.46875 17.050781 13.457031 16.933594 13.445312 C 16.699219 13.417969 16.46875 13.410156 16.300781 13.386719 C 16.21875 13.375 16.148438 13.367188 16.105469 13.355469 C 16.0625 13.34375 16.035156 13.339844 16.035156 13.339844 C 16.027344 13.339844 16.019531 13.339844 15.992188 13.339844 L 15.867188 13.332031 L 15.8125 13.339844 C 15.792969 13.34375 15.78125 13.351562 15.765625 13.355469 C 15.75 13.359375 15.734375 13.371094 15.722656 13.382812 C 15.707031 13.390625 15.695312 13.40625 15.683594 13.417969 C 15.664062 13.425781 15.660156 13.445312 15.640625 13.449219 C 15.632812 13.476562 15.625 13.503906 15.617188 13.527344 C 15.609375 13.554688 15.597656 13.578125 15.601562 13.609375 L 15.597656 13.695312 C 15.59375 13.71875 15.597656 13.71875 15.597656 13.722656 L 15.597656 13.742188 L 15.59375 13.753906 C 15.601562 13.878906 15.605469 14.007812 15.621094 14.125 L 15.644531 14.300781 C 15.652344 14.359375 15.667969 14.425781 15.679688 14.484375 C 15.6875 14.546875 15.707031 14.601562 15.726562 14.660156 C 15.742188 14.71875 15.761719 14.777344 15.785156 14.832031 C 15.8125 14.886719 15.832031 14.945312 15.859375 14.996094 L 15.949219 15.152344 L 15.898438 14.980469 C 15.882812 14.925781 15.878906 14.867188 15.867188 14.808594 C 15.855469 14.753906 15.851562 14.695312 15.847656 14.636719 C 15.84375 14.582031 15.835938 14.523438 15.839844 14.46875 C 15.84375 14.410156 15.84375 14.359375 15.847656 14.300781 L 15.867188 14.125 C 15.878906 14.003906 15.902344 13.898438 15.867188 13.785156 C 15.882812 13.792969 15.898438 13.796875 15.898438 13.800781 L 15.910156 13.769531 C 15.910156 13.761719 15.914062 13.75 15.917969 13.75 L 15.925781 13.742188 C 15.933594 13.738281 15.941406 13.734375 15.9375 13.726562 C 15.945312 13.722656 15.960938 13.730469 15.964844 13.738281 L 15.972656 13.75 L 15.96875 13.757812 C 15.964844 13.757812 15.976562 13.761719 15.988281 13.761719 C 15.988281 13.761719 16.019531 13.761719 16.078125 13.761719 C 16.132812 13.761719 16.207031 13.753906 16.300781 13.746094 C 16.480469 13.726562 16.710938 13.6875 16.9375 13.65625 C 17.054688 13.640625 17.167969 13.628906 17.277344 13.613281 C 17.382812 13.597656 17.484375 13.585938 17.574219 13.570312 C 17.664062 13.554688 17.734375 13.527344 17.777344 13.503906 C 17.824219 13.476562 17.847656 13.464844 17.847656 13.464844 C 17.847656 13.464844 17.820312 13.472656 17.773438 13.488281 C 17.722656 13.5 17.652344 13.507812 17.570312 13.503906 " fill-opacity="1" fill-rule="nonzero"/><path fill="#dd9666" d="M 17.210938 12.230469 C 17.164062 12.238281 17.113281 12.25 17.054688 12.261719 C 16.9375 12.285156 16.800781 12.300781 16.652344 12.316406 C 16.503906 12.332031 16.34375 12.347656 16.1875 12.367188 C 16.105469 12.375 16.027344 12.382812 15.945312 12.398438 C 15.867188 12.40625 15.789062 12.421875 15.710938 12.441406 C 15.550781 12.472656 15.429688 12.507812 15.316406 12.53125 C 15.207031 12.546875 15.113281 12.566406 15.050781 12.566406 C 14.988281 12.566406 14.953125 12.570312 14.953125 12.570312 C 14.953125 12.570312 14.945312 12.570312 14.929688 12.574219 C 14.921875 12.578125 14.910156 12.582031 14.898438 12.582031 C 14.875 12.585938 14.847656 12.585938 14.820312 12.589844 C 14.761719 12.589844 14.691406 12.597656 14.609375 12.601562 C 14.570312 12.605469 14.527344 12.605469 14.484375 12.609375 C 14.464844 12.605469 14.46875 12.621094 14.472656 12.636719 L 14.472656 12.675781 C 14.472656 12.703125 14.476562 12.730469 14.476562 12.761719 C 14.480469 12.816406 14.484375 12.875 14.488281 12.933594 C 14.488281 12.960938 14.492188 12.988281 14.492188 13.015625 C 14.492188 13.035156 14.496094 13.050781 14.496094 13.070312 C 14.503906 13.140625 14.515625 13.210938 14.527344 13.289062 C 14.546875 13.441406 14.585938 13.597656 14.617188 13.753906 C 14.652344 13.910156 14.6875 14.066406 14.722656 14.214844 C 14.738281 14.289062 14.769531 14.359375 14.789062 14.425781 C 14.800781 14.457031 14.808594 14.492188 14.820312 14.519531 C 14.835938 14.550781 14.851562 14.578125 14.867188 14.609375 C 14.925781 14.714844 14.980469 14.796875 15.015625 14.855469 C 15.050781 14.917969 15.066406 14.953125 15.066406 14.953125 C 15.066406 14.953125 15.054688 14.914062 15.03125 14.847656 C 15.007812 14.78125 14.964844 14.691406 14.925781 14.582031 C 14.917969 14.554688 14.910156 14.523438 14.898438 14.496094 C 14.894531 14.464844 14.890625 14.433594 14.882812 14.398438 C 14.875 14.332031 14.859375 14.265625 14.855469 14.191406 C 14.84375 14.042969 14.835938 13.886719 14.828125 13.726562 C 14.824219 13.570312 14.8125 13.414062 14.820312 13.265625 C 14.820312 13.195312 14.820312 13.125 14.824219 13.058594 C 14.824219 13.042969 14.828125 13.023438 14.828125 13.007812 C 14.828125 12.996094 14.832031 13 14.832031 12.996094 L 14.839844 12.980469 L 14.847656 12.976562 C 14.859375 12.980469 14.871094 12.980469 14.878906 12.984375 C 14.894531 12.988281 14.90625 12.992188 14.917969 12.996094 L 14.929688 12.996094 C 14.945312 12.996094 14.960938 12.996094 14.96875 12.996094 C 14.988281 12.992188 15 12.992188 15 12.992188 C 15 12.992188 15.042969 12.984375 15.117188 12.96875 C 15.195312 12.953125 15.292969 12.914062 15.414062 12.875 C 15.53125 12.832031 15.667969 12.765625 15.796875 12.71875 C 15.859375 12.691406 15.929688 12.664062 16.003906 12.644531 C 16.078125 12.617188 16.152344 12.59375 16.226562 12.574219 C 16.382812 12.53125 16.535156 12.488281 16.679688 12.449219 C 16.824219 12.410156 16.957031 12.367188 17.070312 12.324219 C 17.128906 12.304688 17.179688 12.285156 17.226562 12.265625 C 17.269531 12.246094 17.308594 12.226562 17.339844 12.210938 C 17.402344 12.179688 17.4375 12.164062 17.4375 12.164062 C 17.4375 12.164062 17.398438 12.175781 17.332031 12.195312 C 17.300781 12.203125 17.257812 12.214844 17.210938 12.230469 " fill-opacity="1" fill-rule="nonzero"/><path fill="#dd9666" d="M 16.566406 10.984375 C 16.40625 10.859375 16.191406 10.695312 15.976562 10.527344 L 15.953125 10.507812 L 15.921875 10.488281 C 15.902344 10.476562 15.878906 10.46875 15.855469 10.460938 C 15.808594 10.449219 15.761719 10.464844 15.722656 10.488281 L 15.6875 10.507812 L 15.667969 10.523438 L 15.625 10.558594 C 15.597656 10.582031 15.570312 10.601562 15.542969 10.625 C 15.488281 10.667969 15.425781 10.714844 15.386719 10.75 C 15.34375 10.785156 15.300781 10.820312 15.265625 10.851562 C 15.1875 10.914062 15.128906 10.972656 15.082031 11.015625 C 15.039062 11.054688 15.015625 11.078125 15.015625 11.078125 L 14.863281 11.285156 C 14.808594 11.363281 14.777344 11.410156 14.726562 11.46875 C 14.675781 11.527344 14.621094 11.582031 14.558594 11.640625 C 14.5 11.695312 14.4375 11.757812 14.378906 11.820312 L 14.207031 12.011719 C 14.152344 12.070312 14.097656 12.132812 14.039062 12.1875 C 13.984375 12.246094 13.921875 12.300781 13.855469 12.347656 C 13.820312 12.367188 13.789062 12.390625 13.75 12.410156 C 13.714844 12.429688 13.675781 12.445312 13.621094 12.398438 C 13.621094 12.421875 13.621094 12.445312 13.609375 12.445312 C 13.601562 12.453125 13.589844 12.460938 13.578125 12.464844 L 13.546875 12.484375 C 13.570312 12.484375 13.59375 12.484375 13.613281 12.480469 C 13.625 12.480469 13.632812 12.484375 13.644531 12.480469 L 13.765625 12.449219 C 13.808594 12.441406 13.847656 12.421875 13.886719 12.40625 C 13.964844 12.371094 14.042969 12.332031 14.113281 12.28125 C 14.1875 12.238281 14.253906 12.1875 14.324219 12.136719 L 14.523438 11.988281 C 14.589844 11.941406 14.65625 11.898438 14.730469 11.855469 C 14.800781 11.808594 14.875 11.761719 14.945312 11.707031 C 15.015625 11.65625 15.097656 11.578125 15.152344 11.527344 L 15.332031 11.363281 C 15.332031 11.363281 15.351562 11.335938 15.382812 11.289062 C 15.417969 11.246094 15.460938 11.179688 15.523438 11.101562 C 15.582031 11.03125 15.648438 10.945312 15.71875 10.855469 C 15.75 10.816406 15.78125 10.777344 15.816406 10.738281 C 15.824219 10.726562 15.835938 10.710938 15.851562 10.714844 L 15.871094 10.71875 L 15.882812 10.722656 L 15.902344 10.730469 C 16.128906 10.84375 16.355469 10.957031 16.527344 11.039062 C 16.605469 11.089844 16.675781 11.144531 16.726562 11.167969 C 16.785156 11.191406 16.820312 11.183594 16.816406 11.183594 C 16.820312 11.183594 16.785156 11.183594 16.738281 11.152344 C 16.691406 11.117188 16.640625 11.058594 16.566406 10.984375 " fill-opacity="1" fill-rule="nonzero"/><path fill="#dd9666" d="M 19.445312 25.6875 C 19.402344 25.691406 19.355469 25.6875 19.300781 25.6875 C 19.25 25.683594 19.191406 25.683594 19.132812 25.675781 C 19.070312 25.664062 19.007812 25.664062 18.945312 25.644531 C 18.882812 25.628906 18.816406 25.621094 18.75 25.597656 C 18.683594 25.578125 18.621094 25.558594 18.558594 25.527344 C 18.492188 25.503906 18.433594 25.472656 18.371094 25.441406 C 18.3125 25.414062 18.257812 25.375 18.203125 25.34375 C 18.097656 25.273438 18.003906 25.203125 17.929688 25.136719 C 17.851562 25.074219 17.796875 25.011719 17.757812 24.972656 C 17.738281 24.949219 17.726562 24.933594 17.71875 24.925781 C 17.710938 24.914062 17.703125 24.90625 17.703125 24.90625 L 17.402344 25.191406 C 17.402344 25.191406 17.410156 25.199219 17.425781 25.210938 C 17.441406 25.222656 17.460938 25.242188 17.488281 25.261719 C 17.542969 25.304688 17.625 25.363281 17.722656 25.421875 C 17.820312 25.480469 17.941406 25.542969 18.074219 25.597656 C 18.140625 25.621094 18.207031 25.652344 18.28125 25.671875 C 18.351562 25.691406 18.421875 25.710938 18.496094 25.726562 C 18.570312 25.746094 18.644531 25.753906 18.71875 25.761719 C 18.789062 25.773438 18.863281 25.773438 18.929688 25.777344 C 19 25.78125 19.066406 25.773438 19.128906 25.769531 C 19.191406 25.769531 19.25 25.757812 19.304688 25.75 C 19.359375 25.742188 19.410156 25.738281 19.453125 25.726562 C 19.496094 25.714844 19.53125 25.703125 19.5625 25.695312 C 19.621094 25.679688 19.65625 25.671875 19.65625 25.671875 C 19.65625 25.671875 19.621094 25.675781 19.558594 25.679688 C 19.527344 25.679688 19.488281 25.683594 19.445312 25.6875 " fill-opacity="1" fill-rule="nonzero"/><path fill="#dd9666" d="M 6.644531 23.21875 C 6.597656 23.320312 6.53125 23.460938 6.46875 23.601562 C 6.441406 23.675781 6.410156 23.746094 6.386719 23.816406 C 6.363281 23.882812 6.34375 23.953125 6.332031 24.007812 C 6.316406 24.0625 6.3125 24.113281 6.304688 24.140625 C 6.300781 24.175781 6.300781 24.191406 6.300781 24.191406 C 6.300781 24.191406 6.3125 24.179688 6.339844 24.160156 C 6.363281 24.140625 6.394531 24.109375 6.441406 24.082031 C 6.488281 24.050781 6.539062 24.015625 6.597656 23.984375 C 6.65625 23.953125 6.71875 23.921875 6.78125 23.890625 C 6.910156 23.832031 7.042969 23.777344 7.144531 23.734375 C 7.25 23.6875 7.320312 23.65625 7.320312 23.65625 L 6.71875 23.050781 C 6.71875 23.050781 6.6875 23.117188 6.644531 23.21875 " fill-opacity="1" fill-rule="nonzero"/><path fill="#dd9666" d="M 16.386719 24.539062 C 16.375 24.578125 16.347656 24.636719 16.332031 24.699219 C 16.3125 24.761719 16.292969 24.832031 16.277344 24.90625 C 16.265625 24.976562 16.25 25.050781 16.234375 25.125 C 16.21875 25.195312 16.203125 25.269531 16.183594 25.332031 C 16.164062 25.402344 16.136719 25.453125 16.113281 25.507812 C 16.09375 25.558594 16.0625 25.59375 16.046875 25.625 C 16.027344 25.65625 16.019531 25.671875 16.019531 25.671875 C 16.019531 25.671875 16.035156 25.664062 16.070312 25.65625 C 16.101562 25.644531 16.152344 25.632812 16.207031 25.605469 C 16.257812 25.578125 16.328125 25.546875 16.390625 25.5 C 16.460938 25.460938 16.527344 25.410156 16.59375 25.355469 C 16.65625 25.308594 16.71875 25.257812 16.773438 25.210938 C 16.832031 25.164062 16.882812 25.128906 16.925781 25.101562 C 16.96875 25.070312 17.003906 25.058594 17.027344 25.046875 C 17.046875 25.035156 17.0625 25.03125 17.0625 25.03125 L 16.414062 24.476562 C 16.414062 24.476562 16.40625 24.496094 16.386719 24.539062 " fill-opacity="1" fill-rule="nonzero"/><path fill="#dd9666" d="M 19.566406 14.347656 C 19.5625 14.292969 19.554688 14.234375 19.546875 14.179688 C 19.539062 14.0625 19.511719 13.941406 19.492188 13.820312 C 19.460938 13.703125 19.441406 13.582031 19.40625 13.472656 C 19.390625 13.421875 19.375 13.367188 19.359375 13.320312 C 19.34375 13.269531 19.324219 13.222656 19.308594 13.179688 C 19.292969 13.140625 19.28125 13.101562 19.265625 13.066406 C 19.25 13.035156 19.238281 13.007812 19.226562 12.984375 C 19.203125 12.9375 19.191406 12.910156 19.191406 12.910156 C 19.191406 12.910156 19.191406 12.941406 19.191406 12.992188 C 19.191406 13.015625 19.1875 13.046875 19.1875 13.082031 C 19.1875 13.117188 19.183594 13.15625 19.179688 13.199219 C 19.171875 13.242188 19.167969 13.289062 19.164062 13.335938 C 19.15625 13.386719 19.144531 13.4375 19.136719 13.488281 C 19.121094 13.59375 19.089844 13.703125 19.0625 13.8125 C 19.03125 13.921875 19.003906 14.027344 18.96875 14.125 C 18.949219 14.175781 18.933594 14.222656 18.917969 14.265625 C 18.898438 14.308594 18.882812 14.347656 18.867188 14.382812 C 18.851562 14.421875 18.839844 14.453125 18.824219 14.480469 C 18.808594 14.507812 18.796875 14.53125 18.785156 14.550781 C 18.765625 14.585938 18.753906 14.609375 18.753906 14.609375 L 19.574219 14.835938 C 19.574219 14.835938 19.578125 14.800781 19.578125 14.742188 C 19.578125 14.710938 19.582031 14.675781 19.582031 14.632812 C 19.582031 14.59375 19.578125 14.550781 19.578125 14.5 C 19.574219 14.453125 19.570312 14.402344 19.566406 14.347656 " fill-opacity="1" fill-rule="nonzero"/><g clip-path="url(#49ce52b20d)"><path fill="#fdbd94" d="M 23.308594 3.246094 C 23.308594 3.246094 22.855469 2.671875 23.414062 2.175781 C 23.851562 1.792969 24.519531 1.816406 24.976562 2.078125 C 25.429688 2.335938 27.859375 3.613281 29.074219 5.824219 C 30.285156 8.03125 31.242188 10.847656 30.570312 12.34375 C 30.28125 12.980469 29.558594 12.21875 29.320312 11.714844 C 29.007812 11.042969 29.203125 10.390625 29.03125 9.894531 C 28.726562 9.027344 27.101562 5.109375 23.308594 3.246094 Z M 23.308594 3.246094 " fill-opacity="1" fill-rule="nonzero"/></g><g clip-path="url(#59df5dbb42)"><path fill="#db915d" d="M 9.410156 15.082031 C 9.410156 15.082031 9.28125 15.65625 9.355469 15.738281 C 9.429688 15.820312 9.460938 15.84375 9.636719 15.796875 C 9.808594 15.753906 10.726562 15.328125 10.898438 15.257812 C 11.066406 15.1875 12.386719 14.652344 12.796875 14.523438 C 13.210938 14.394531 17.5625 13.460938 18.457031 13.304688 C 19.355469 13.148438 24.554688 12.597656 25.621094 12.722656 C 26.6875 12.851562 29.445312 12.824219 29.445312 12.824219 C 29.445312 12.824219 30.492188 12.824219 30.554688 12.433594 C 30.617188 12.042969 30.730469 11.738281 30.214844 11.285156 C 29.695312 10.828125 29.003906 11.566406 29.082031 11.816406 C 29.160156 12.0625 29.375 12.570312 29.273438 12.6875 C 29.175781 12.800781 28.671875 12.667969 28.578125 12.667969 C 28.488281 12.667969 26.480469 12.304688 25.777344 12.339844 C 25.074219 12.375 22.027344 12.175781 21.679688 12.296875 C 21.328125 12.417969 18.671875 12.808594 16.539062 13.277344 C 14.40625 13.746094 10.675781 14.335938 10.015625 14.875 C 9.355469 15.414062 9.410156 15.082031 9.410156 15.082031 Z M 9.410156 15.082031 " fill-opacity="1" fill-rule="nonzero"/></g><g clip-path="url(#bf72c51dd0)"><path fill="#fbc941" d="M 9.5 15.816406 C 9.5 15.816406 9.5 15.601562 9.386719 15.542969 C 9.273438 15.480469 9.410156 15.082031 9.410156 15.082031 C 9.410156 15.082031 9.625 14.203125 10.566406 12.703125 C 11.511719 11.199219 12.851562 9.464844 13.785156 8.75 C 14.722656 8.039062 16.5 6.597656 17.027344 6.277344 C 17.558594 5.976562 18.316406 5.410156 20.253906 4.394531 C 22.117188 3.417969 23.128906 3.199219 23.351562 3.199219 C 23.574219 3.199219 24.539062 3.53125 25.058594 3.972656 C 25.582031 4.417969 26.785156 5.558594 27.136719 6.277344 C 27.488281 6.996094 27.765625 6.851562 28.25 8.03125 C 28.730469 9.210938 29.375 10.25 29.320312 11.355469 C 29.269531 12.457031 29.273438 12.6875 29.273438 12.6875 L 29.175781 12.800781 C 29.175781 12.800781 27.230469 12.464844 26.070312 12.488281 C 24.914062 12.511719 24.179688 12.625 23.457031 12.984375 C 22.738281 13.34375 21.65625 13.496094 21.472656 13.496094 C 21.289062 13.496094 20.179688 13.070312 19.765625 12.984375 C 19.351562 12.902344 18.722656 12.679688 18.132812 13.070312 C 17.542969 13.460938 17.34375 13.351562 17.203125 13.414062 C 17.066406 13.476562 16.199219 13.804688 15.886719 14.355469 C 15.570312 14.90625 15.976562 15.242188 15.417969 15.800781 C 14.859375 16.359375 14.183594 15.976562 14.078125 15.617188 C 13.96875 15.257812 14.046875 14.4375 13.449219 14.347656 C 12.851562 14.253906 12.230469 14.386719 11.746094 14.675781 C 11.265625 14.96875 11.289062 14.808594 11.066406 15.019531 C 10.84375 15.234375 10.710938 15.242188 10.691406 15.335938 C 10.667969 15.425781 10.445312 15.816406 10.4375 15.933594 C 10.429688 16.046875 10.304688 16.453125 9.96875 16.453125 C 9.632812 16.453125 9.5625 16.285156 9.523438 16.085938 C 9.488281 15.886719 9.5 15.816406 9.5 15.816406 Z M 9.5 15.816406 " fill-opacity="1" fill-rule="nonzero"/></g><g clip-path="url(#648649e471)"><path fill="#f6b002" d="M 22.894531 5.027344 C 21.878906 5.054688 21.511719 5.902344 20.960938 6.148438 C 20.839844 6.199219 18.929688 6.691406 19.121094 6.882812 C 19.148438 6.910156 19.175781 6.929688 19.210938 6.945312 C 18.109375 7.746094 16.019531 7.347656 15.136719 8.230469 C 15.03125 8.332031 15.203125 8.769531 15.136719 8.902344 C 15.085938 9 14.621094 9.246094 14.828125 9.457031 C 14.84375 9.472656 15.5 9.792969 15.074219 9.882812 C 14.453125 10.015625 13.046875 10.007812 12.558594 10.496094 C 12.230469 10.824219 12.789062 11.515625 12.253906 11.78125 C 11.875 11.972656 11.089844 13.1875 10.71875 13.558594 C 10.425781 13.855469 9.488281 14.289062 9.863281 14.476562 C 10.671875 14.882812 15.167969 12.042969 15.503906 11.597656 C 15.78125 11.230469 17.289062 10.261719 17.769531 10.742188 C 18.566406 11.535156 16.28125 13.175781 16.300781 13.191406 C 16.410156 13.300781 17.449219 12.71875 17.527344 12.640625 C 17.835938 12.332031 18.917969 12.472656 19.367188 12.027344 C 19.808594 11.585938 18.992188 11.191406 19.980469 10.863281 C 20.046875 10.839844 20.113281 10.832031 20.179688 10.835938 C 19.742188 10.609375 19.457031 10.160156 19.058594 9.960938 C 18.414062 9.640625 17.453125 9.699219 16.976562 9.222656 C 16.234375 8.480469 19.667969 8.742188 19.707031 8.703125 C 19.867188 8.546875 19.550781 7.910156 19.707031 7.75 C 19.871094 7.589844 20.269531 7.539062 20.402344 7.40625 C 20.554688 7.25 20.25 6.976562 20.183594 6.929688 C 21.578125 6.6875 20.652344 7.585938 20.835938 7.707031 C 20.882812 7.738281 21.113281 7.726562 21.140625 7.75 C 21.335938 7.949219 20.640625 8.40625 20.75 8.445312 C 21.953125 8.84375 22.09375 8.601562 22.09375 9.917969 C 22.09375 10.03125 23.800781 9.652344 23.695312 9.960938 C 23.527344 10.46875 21.511719 11.003906 20.621094 10.953125 C 20.75 11.003906 20.882812 11.046875 21.019531 11.046875 C 23.449219 11.046875 21.441406 11.53125 22.308594 12.394531 C 23.234375 13.320312 25.574219 11.070312 26.234375 10.742188 C 26.363281 10.675781 25.90625 10.566406 25.804688 10.496094 C 25.617188 10.375 25.484375 9.78125 25.621094 9.578125 C 25.941406 9.09375 27.488281 8.734375 26.96875 8.476562 C 26.859375 8.421875 26.722656 8.40625 26.582031 8.394531 C 26.742188 8.277344 27.015625 8.078125 26.96875 7.984375 C 26.902344 7.851562 26.4375 7.824219 26.355469 7.742188 C 26.183594 7.566406 26.46875 6.929688 26.355469 6.699219 C 26.296875 6.585938 25.859375 6.507812 25.742188 6.394531 C 25.484375 6.136719 25.75 5.480469 25.558594 5.289062 C 25.21875 4.949219 24.011719 5.34375 23.535156 5.105469 C 23.296875 5.046875 23.085938 5.023438 22.894531 5.027344 Z M 22.894531 5.027344 " fill-opacity="1" fill-rule="nonzero"/></g><path fill="#ffdd8a" d="M 25.777344 6.191406 C 25.464844 5.355469 24.621094 4.863281 24.085938 4.328125 C 23.503906 3.75 20.699219 4.378906 20.226562 4.847656 C 20.15625 4.921875 20.433594 5.414062 21.375 5.566406 C 22.109375 5.683594 23.613281 5.390625 23.308594 5.84375 C 22.960938 6.363281 21.621094 5.625 21.269531 5.976562 C 21.042969 6.203125 21.90625 6.242188 21.617188 6.820312 C 21.28125 7.492188 20.058594 6.972656 19.40625 6.972656 C 19.074219 6.972656 18.648438 6.914062 18.363281 7.058594 C 18.324219 7.078125 18.1875 7.101562 18.234375 7.101562 C 18.351562 7.101562 18.691406 7.09375 18.582031 7.058594 C 18.386719 6.992188 17.789062 7.035156 17.628906 7.058594 C 16.527344 7.214844 16.054688 7.632812 15.460938 8.226562 C 15.386719 8.300781 16.347656 8.3125 16.5 8.3125 C 17.085938 8.3125 18.886719 8.089844 18.667969 8.964844 C 18.46875 9.757812 16.375 8.757812 15.757812 9.316406 C 15.003906 10 14.308594 10.1875 13.683594 10.4375 C 13.519531 10.5 12.269531 10.648438 12.425781 10.957031 C 12.625 11.355469 16.804688 10.546875 17.222656 10.234375 C 17.589844 9.957031 21.972656 9.632812 21.660156 9.007812 C 21.535156 8.757812 20.445312 9.09375 20.226562 8.878906 C 20.027344 8.675781 20.511719 8.121094 20.488281 8.097656 C 20.394531 8.003906 20.046875 8.160156 19.925781 8.097656 C 19.882812 8.074219 19.695312 7.683594 19.792969 7.664062 C 21.046875 7.414062 20.792969 8.335938 22.070312 8.335938 C 22.082031 8.335938 25.214844 7.707031 25.085938 7.492188 C 24.742188 6.925781 22.316406 6.632812 22.699219 6.539062 C 24.15625 6.175781 22.855469 8.21875 23.394531 8.488281 C 23.996094 8.789062 24.261719 8.398438 24.261719 9.179688 C 24.261719 9.449219 22.898438 9.304688 22.722656 9.527344 C 22.460938 9.851562 23.292969 10.230469 22.917969 10.261719 C 21 10.421875 19.515625 10.308594 17.777344 10.5 C 16.410156 10.652344 15.242188 11.832031 13.898438 12.167969 C 13.308594 12.316406 12.679688 12.40625 12.078125 12.558594 C 12.039062 12.566406 11.816406 12.828125 11.816406 12.832031 C 12.007812 13.167969 12.394531 12.730469 12.683594 12.730469 C 13.074219 12.730469 14.050781 12.589844 14.417969 12.773438 C 14.816406 12.972656 13.746094 14.257812 14.636719 13.816406 C 16.371094 12.949219 15.417969 13.121094 15.9375 12.253906 C 16.101562 11.976562 17.515625 13.34375 18.21875 12.644531 C 19.679688 11.195312 20.433594 11.351562 20.878906 11.824219 C 21.234375 12.199219 21.1875 12.6875 22.222656 12.296875 C 22.480469 12.203125 22.730469 12.023438 22.960938 11.910156 C 24.351562 11.214844 21.707031 11.621094 22.136719 11.085938 C 22.226562 10.972656 22.660156 10.835938 22.785156 10.78125 C 22.890625 10.738281 23.976562 10.570312 24 10.523438 C 24.261719 10.003906 24.859375 9.695312 25.519531 9.613281 C 26.363281 9.507812 25.660156 10.339844 25.953125 10.4375 C 26.0625 10.472656 26.4375 10.355469 26.515625 10.4375 C 26.875 10.796875 25.929688 11.410156 26.90625 11.214844 C 27.308594 11.136719 28.128906 10.585938 27.859375 10.046875 C 27.683594 9.695312 26.777344 9.789062 26.515625 9.527344 C 26.347656 9.359375 26.632812 8.394531 26.472656 8.3125 C 26.058594 8.109375 24.699219 8.582031 24.390625 8.269531 C 23.820312 7.699219 26.730469 7.726562 27.105469 7.351562 C 27.40625 7.050781 26.386719 6.539062 26.296875 6.539062 C 26.105469 6.539062 25.066406 6.425781 25.5625 5.933594 C 25.6875 5.804688 26.195312 5.984375 25.777344 6.191406 Z M 25.777344 6.191406 " fill-opacity="1" fill-rule="nonzero"/><path fill="#af3902" d="M 15.035156 11.3125 C 14.933594 11.613281 14.914062 11.832031 15.019531 12.0625 C 15.109375 12.253906 15.402344 12.632812 16.09375 12.597656 C 16.722656 12.566406 17.585938 12.019531 17.449219 11.160156 C 17.285156 10.117188 15.980469 10.277344 15.617188 10.59375 C 15.257812 10.90625 15.109375 11.09375 15.035156 11.3125 Z M 15.035156 11.3125 " fill-opacity="1" fill-rule="nonzero"/><path fill="#e84c03" d="M 14.953125 11.175781 C 14.851562 11.476562 14.832031 11.695312 14.9375 11.925781 C 15.027344 12.117188 15.320312 12.496094 16.011719 12.460938 C 16.640625 12.429688 17.503906 11.882812 17.367188 11.023438 C 17.203125 9.980469 15.894531 10.140625 15.535156 10.457031 C 15.175781 10.769531 15.027344 10.957031 14.953125 11.175781 Z M 14.953125 11.175781 " fill-opacity="1" fill-rule="nonzero"/><path fill="#af3902" d="M 15.238281 11.203125 C 15.234375 11.359375 15.410156 11.238281 15.238281 11.203125 Z M 15.238281 11.203125 " fill-opacity="1" fill-rule="nonzero"/><path fill="#af3902" d="M 16.167969 10.675781 C 16.070312 10.695312 16.171875 10.808594 16.222656 10.757812 C 16.261719 10.71875 16.230469 10.644531 16.167969 10.675781 Z M 16.167969 10.675781 " fill-opacity="1" fill-rule="nonzero"/><path fill="#af3902" d="M 16.277344 11.492188 C 16.296875 11.453125 16.332031 11.453125 16.375 11.453125 C 16.507812 11.453125 16.214844 11.808594 16.277344 11.492188 Z M 16.277344 11.492188 " fill-opacity="1" fill-rule="nonzero"/><path fill="#af3902" d="M 15.722656 11.53125 C 15.890625 11.496094 15.699219 11.738281 15.699219 11.574219 C 15.699219 11.535156 15.691406 11.546875 15.722656 11.53125 Z M 15.722656 11.53125 " fill-opacity="1" fill-rule="nonzero"/><path fill="#af3902" d="M 16.972656 11.25 C 16.929688 11.421875 17.105469 11.152344 16.972656 11.25 Z M 16.972656 11.25 " fill-opacity="1" fill-rule="nonzero"/><path fill="#af3902" d="M 15.996094 12.167969 C 16.160156 12.0625 15.996094 12.371094 15.996094 12.167969 Z M 15.996094 12.167969 " fill-opacity="1" fill-rule="nonzero"/><path fill="#af3902" d="M 15.601562 10.738281 C 15.609375 10.871094 15.710938 10.65625 15.601562 10.738281 Z M 15.601562 10.738281 " fill-opacity="1" fill-rule="nonzero"/><path fill="#af3902" d="M 15.339844 11.886719 C 15.433594 11.632812 15.097656 12.007812 15.339844 11.886719 Z M 15.339844 11.886719 " fill-opacity="1" fill-rule="nonzero"/><path fill="#af3902" d="M 16.816406 11.835938 C 16.78125 11.828125 16.789062 11.835938 16.789062 11.804688 C 16.789062 11.6875 16.941406 11.929688 16.816406 11.835938 Z M 16.816406 11.835938 " fill-opacity="1" fill-rule="nonzero"/><path fill="#af3902" d="M 16.726562 10.695312 C 16.644531 10.621094 16.769531 10.523438 16.769531 10.667969 C 16.769531 10.703125 16.761719 10.695312 16.726562 10.695312 Z M 16.726562 10.695312 " fill-opacity="1" fill-rule="nonzero"/><path fill="#af3902" d="M 21.109375 5.199219 C 21.027344 5.429688 21.007812 5.601562 21.097656 5.78125 C 21.171875 5.929688 21.410156 6.222656 21.980469 6.195312 C 22.496094 6.171875 23.207031 5.746094 23.09375 5.078125 C 22.960938 4.269531 21.882812 4.394531 21.589844 4.636719 C 21.292969 4.882812 21.167969 5.027344 21.109375 5.199219 Z M 21.109375 5.199219 " fill-opacity="1" fill-rule="nonzero"/><path fill="#e84c03" d="M 21.039062 5.089844 C 20.957031 5.324219 20.941406 5.496094 21.027344 5.675781 C 21.101562 5.824219 21.34375 6.117188 21.910156 6.089844 C 22.429688 6.066406 23.140625 5.640625 23.027344 4.972656 C 22.890625 4.164062 21.816406 4.289062 21.519531 4.53125 C 21.222656 4.777344 21.101562 4.921875 21.039062 5.089844 Z M 21.039062 5.089844 " fill-opacity="1" fill-rule="nonzero"/><path fill="#af3902" d="M 21.273438 5.113281 C 21.269531 5.234375 21.417969 5.140625 21.273438 5.113281 Z M 21.273438 5.113281 " fill-opacity="1" fill-rule="nonzero"/><path fill="#af3902" d="M 22.042969 4.703125 C 21.957031 4.71875 22.042969 4.804688 22.082031 4.765625 C 22.117188 4.738281 22.09375 4.679688 22.042969 4.703125 Z M 22.042969 4.703125 " fill-opacity="1" fill-rule="nonzero"/><path fill="#af3902" d="M 22.132812 5.335938 C 22.144531 5.304688 22.175781 5.308594 22.210938 5.308594 C 22.320312 5.308594 22.078125 5.582031 22.132812 5.335938 Z M 22.132812 5.335938 " fill-opacity="1" fill-rule="nonzero"/><path fill="#af3902" d="M 21.675781 5.367188 C 21.8125 5.339844 21.652344 5.527344 21.652344 5.402344 C 21.652344 5.371094 21.648438 5.378906 21.675781 5.367188 Z M 21.675781 5.367188 " fill-opacity="1" fill-rule="nonzero"/><path fill="#af3902" d="M 22.703125 5.148438 C 22.667969 5.28125 22.808594 5.074219 22.703125 5.148438 Z M 22.703125 5.148438 " fill-opacity="1" fill-rule="nonzero"/><path fill="#af3902" d="M 21.898438 5.863281 C 22.035156 5.78125 21.898438 6.019531 21.898438 5.863281 Z M 21.898438 5.863281 " fill-opacity="1" fill-rule="nonzero"/><path fill="#af3902" d="M 21.574219 4.753906 C 21.578125 4.855469 21.664062 4.6875 21.574219 4.753906 Z M 21.574219 4.753906 " fill-opacity="1" fill-rule="nonzero"/><path fill="#af3902" d="M 21.359375 5.644531 C 21.433594 5.449219 21.160156 5.738281 21.359375 5.644531 Z M 21.359375 5.644531 " fill-opacity="1" fill-rule="nonzero"/><path fill="#af3902" d="M 22.570312 5.605469 C 22.546875 5.597656 22.550781 5.601562 22.550781 5.578125 C 22.550781 5.488281 22.675781 5.675781 22.570312 5.605469 Z M 22.570312 5.605469 " fill-opacity="1" fill-rule="nonzero"/><path fill="#af3902" d="M 22.5 4.71875 C 22.433594 4.660156 22.535156 4.585938 22.535156 4.699219 C 22.535156 4.722656 22.527344 4.71875 22.5 4.71875 Z M 22.5 4.71875 " fill-opacity="1" fill-rule="nonzero"/><path fill="#9eb31a" d="M 18.191406 11.269531 C 18.183594 10.574219 18.882812 10.644531 19.121094 10.804688 C 18.933594 10.957031 18.621094 11.628906 18.191406 11.269531 Z M 18.191406 11.269531 " fill-opacity="1" fill-rule="nonzero"/><path fill="#497100" d="M 19.121094 10.804688 C 18.652344 10.839844 18.429688 11.046875 18.191406 11.269531 C 18.621094 11.628906 18.933594 10.957031 19.121094 10.804688 Z M 19.121094 10.804688 " fill-opacity="1" fill-rule="nonzero"/><path fill="#9eb31a" d="M 19.941406 8.585938 C 18.996094 8.546875 19.140625 7.605469 19.378906 7.296875 C 19.570312 7.5625 20.460938 8.03125 19.941406 8.585938 Z M 19.941406 8.585938 " fill-opacity="1" fill-rule="nonzero"/><path fill="#497100" d="M 19.378906 7.296875 C 19.390625 7.933594 19.65625 8.246094 19.941406 8.585938 C 20.460938 8.03125 19.570312 7.5625 19.378906 7.296875 Z M 19.378906 7.296875 " fill-opacity="1" fill-rule="nonzero"/><path fill="#9eb31a" d="M 24.863281 7.457031 C 24.691406 6.777344 24.027344 7.027344 23.839844 7.246094 C 24.0625 7.34375 24.539062 7.917969 24.863281 7.457031 Z M 24.863281 7.457031 " fill-opacity="1" fill-rule="nonzero"/><path fill="#497100" d="M 23.839844 7.246094 C 24.304688 7.15625 24.574219 7.300781 24.863281 7.457031 C 24.539062 7.917969 24.0625 7.34375 23.839844 7.246094 Z M 23.839844 7.246094 " fill-opacity="1" fill-rule="nonzero"/><path fill="#9eb31a" d="M 22.128906 6.515625 C 21.523438 6.488281 21.566406 7.097656 21.699219 7.308594 C 21.835938 7.148438 22.429688 6.898438 22.128906 6.515625 Z M 22.128906 6.515625 " fill-opacity="1" fill-rule="nonzero"/><path fill="#497100" d="M 21.699219 7.308594 C 21.742188 6.902344 21.925781 6.71875 22.128906 6.515625 C 22.429688 6.898438 21.835938 7.148438 21.699219 7.308594 Z M 21.699219 7.308594 " fill-opacity="1" fill-rule="nonzero"/><path fill="#9eb31a" d="M 27.421875 10.316406 C 27.183594 9.660156 27.867188 9.5 28.144531 9.574219 C 28.015625 9.777344 27.941406 10.515625 27.421875 10.316406 Z M 27.421875 10.316406 " fill-opacity="1" fill-rule="nonzero"/><path fill="#497100" d="M 28.144531 9.574219 C 27.710938 9.761719 27.570312 10.027344 27.421875 10.316406 C 27.941406 10.515625 28.015625 9.777344 28.144531 9.574219 Z M 28.144531 9.574219 " fill-opacity="1" fill-rule="nonzero"/><path fill="#9eb31a" d="M 12.992188 10.460938 C 12.671875 9.953125 13.125 9.550781 13.339844 9.515625 C 13.292969 9.75 13.410156 10.445312 12.992188 10.460938 Z M 12.992188 10.460938 " fill-opacity="1" fill-rule="nonzero"/><path fill="#497100" d="M 13.339844 9.515625 C 13.070312 9.847656 13.03125 10.140625 12.992188 10.460938 C 13.410156 10.445312 13.292969 9.75 13.339844 9.515625 Z M 13.339844 9.515625 " fill-opacity="1" fill-rule="nonzero"/><path fill="#c4e54a" d="M 12.390625 12.550781 C 12.339844 12.550781 12.320312 12.519531 12.261719 12.515625 C 12.222656 12.238281 12.363281 12.261719 12.519531 12.109375 C 12.707031 11.921875 12.609375 11.660156 13 11.660156 C 13.003906 11.691406 13.003906 11.714844 13.003906 11.75 C 12.648438 11.714844 12.828125 12.0625 12.71875 12.171875 C 12.636719 12.25 12.523438 12.28125 12.449219 12.355469 C 12.398438 12.402344 12.417969 12.496094 12.390625 12.550781 Z M 12.390625 12.550781 " fill-opacity="1" fill-rule="nonzero"/><path fill="#c4e54a" d="M 15.257812 8.980469 C 15.261719 8.929688 15.296875 8.910156 15.304688 8.855469 C 15.585938 8.839844 15.546875 8.976562 15.6875 9.140625 C 15.863281 9.34375 16.132812 9.269531 16.101562 9.65625 C 16.070312 9.65625 16.042969 9.65625 16.011719 9.65625 C 16.074219 9.304688 15.714844 9.453125 15.613281 9.335938 C 15.539062 9.25 15.519531 9.132812 15.449219 9.050781 C 15.40625 9 15.308594 9.011719 15.257812 8.980469 Z M 15.257812 8.980469 " fill-opacity="1" fill-rule="nonzero"/><path fill="#c4e54a" d="M 21.1875 11.839844 C 21.160156 11.871094 21.128906 11.867188 21.101562 11.902344 C 20.914062 11.785156 21 11.714844 20.984375 11.546875 C 20.964844 11.339844 20.757812 11.265625 20.953125 11.035156 C 20.972656 11.046875 20.992188 11.058594 21.011719 11.074219 C 20.8125 11.269531 21.109375 11.335938 21.121094 11.457031 C 21.128906 11.542969 21.089844 11.628906 21.097656 11.710938 C 21.101562 11.761719 21.167969 11.796875 21.1875 11.839844 Z M 21.1875 11.839844 " fill-opacity="1" fill-rule="nonzero"/><path fill="#c4e54a" d="M 18.082031 9.140625 C 18.050781 9.113281 18.054688 9.085938 18.019531 9.054688 C 18.140625 8.871094 18.210938 8.957031 18.378906 8.941406 C 18.582031 8.925781 18.660156 8.71875 18.890625 8.917969 C 18.875 8.9375 18.863281 8.953125 18.847656 8.972656 C 18.652344 8.773438 18.585938 9.070312 18.464844 9.078125 C 18.378906 9.085938 18.292969 9.046875 18.210938 9.054688 C 18.160156 9.058594 18.125 9.121094 18.082031 9.140625 Z M 18.082031 9.140625 " fill-opacity="1" fill-rule="nonzero"/><path fill="#c4e54a" d="M 24.339844 9.609375 C 24.5625 9.242188 24.8125 9.792969 25.046875 9.859375 C 25.171875 9.867188 25.433594 10.261719 25.230469 10.160156 C 25.027344 9.976562 24.664062 10.03125 24.574219 9.710938 C 24.519531 9.640625 24.429688 9.585938 24.339844 9.609375 Z M 24.339844 9.609375 " fill-opacity="1" fill-rule="nonzero"/><path fill="#c4e54a" d="M 26.789062 8.722656 C 26.757812 8.75 26.730469 8.738281 26.695312 8.769531 C 26.527344 8.628906 26.621094 8.570312 26.628906 8.402344 C 26.640625 8.195312 26.449219 8.09375 26.671875 7.890625 C 26.691406 7.90625 26.707031 7.921875 26.722656 7.9375 C 26.5 8.105469 26.785156 8.210938 26.777344 8.332031 C 26.773438 8.417969 26.722656 8.496094 26.71875 8.578125 C 26.714844 8.632812 26.777344 8.675781 26.789062 8.722656 Z M 26.789062 8.722656 " fill-opacity="1" fill-rule="nonzero"/><path fill="#c4e54a" d="M 19.617188 6.867188 C 19.574219 6.863281 19.558594 6.835938 19.515625 6.832031 C 19.496094 6.613281 19.605469 6.640625 19.730469 6.527344 C 19.882812 6.390625 19.820312 6.179688 20.125 6.199219 C 20.125 6.222656 20.125 6.242188 20.125 6.269531 C 19.847656 6.226562 19.972656 6.503906 19.882812 6.582031 C 19.820312 6.640625 19.726562 6.660156 19.667969 6.714844 C 19.628906 6.75 19.636719 6.824219 19.617188 6.867188 Z M 19.617188 6.867188 " fill-opacity="1" fill-rule="nonzero"/><path fill="#c4e54a" d="M 24.582031 5.316406 C 24.582031 5.359375 24.558594 5.375 24.558594 5.421875 C 24.34375 5.464844 24.359375 5.351562 24.230469 5.242188 C 24.078125 5.105469 23.878906 5.191406 23.859375 4.890625 C 23.882812 4.886719 23.902344 4.882812 23.929688 4.882812 C 23.917969 5.160156 24.179688 5.003906 24.269531 5.082031 C 24.335938 5.140625 24.363281 5.230469 24.425781 5.285156 C 24.464844 5.320312 24.539062 5.300781 24.582031 5.316406 Z M 24.582031 5.316406 " fill-opacity="1" fill-rule="nonzero"/><path fill="#c4e54a" d="M 26.34375 10.710938 C 26.261719 10.816406 26.21875 10.929688 26.207031 11.042969 C 26.195312 11.15625 26.21875 11.238281 26.28125 11.289062 C 26.296875 11.300781 26.3125 11.308594 26.328125 11.316406 C 26.234375 11.175781 26.265625 10.996094 26.425781 10.777344 C 26.582031 10.558594 26.738281 10.480469 26.886719 10.539062 C 26.878906 10.523438 26.867188 10.511719 26.851562 10.5 C 26.789062 10.449219 26.710938 10.441406 26.609375 10.484375 C 26.511719 10.523438 26.421875 10.601562 26.34375 10.707031 Z M 26.34375 10.710938 " fill-opacity="1" fill-rule="nonzero"/><path fill="#68a100" d="M 26.886719 10.539062 C 26.980469 10.679688 26.949219 10.863281 26.792969 11.082031 C 26.632812 11.296875 26.480469 11.378906 26.328125 11.316406 C 26.339844 11.332031 26.351562 11.347656 26.363281 11.359375 C 26.425781 11.410156 26.507812 11.414062 26.605469 11.375 C 26.707031 11.332031 26.796875 11.257812 26.875 11.148438 C 26.953125 11.039062 27 10.929688 27.011719 10.816406 C 27.023438 10.703125 26.996094 10.617188 26.933594 10.566406 C 26.921875 10.554688 26.90625 10.546875 26.886719 10.539062 Z M 26.886719 10.539062 " fill-opacity="1" fill-rule="nonzero"/><path fill="#c4e54a" d="M 10.863281 13.5 C 10.785156 13.609375 10.742188 13.71875 10.730469 13.832031 C 10.71875 13.949219 10.742188 14.03125 10.804688 14.082031 C 10.816406 14.09375 10.832031 14.101562 10.851562 14.109375 C 10.757812 13.96875 10.789062 13.789062 10.949219 13.570312 C 11.105469 13.351562 11.261719 13.269531 11.410156 13.332031 C 11.402344 13.316406 11.386719 13.300781 11.375 13.289062 C 11.3125 13.238281 11.230469 13.234375 11.132812 13.273438 C 11.03125 13.316406 10.945312 13.390625 10.863281 13.5 Z M 10.863281 13.5 " fill-opacity="1" fill-rule="nonzero"/><path fill="#68a100" d="M 11.410156 13.332031 C 11.503906 13.472656 11.472656 13.652344 11.3125 13.871094 C 11.15625 14.089844 11.003906 14.167969 10.851562 14.109375 C 10.859375 14.125 10.875 14.136719 10.886719 14.148438 C 10.949219 14.199219 11.03125 14.207031 11.128906 14.164062 C 11.230469 14.125 11.320312 14.046875 11.398438 13.941406 C 11.476562 13.832031 11.519531 13.71875 11.53125 13.605469 C 11.542969 13.492188 11.519531 13.410156 11.457031 13.359375 C 11.445312 13.347656 11.429688 13.339844 11.410156 13.332031 Z M 11.410156 13.332031 " fill-opacity="1" fill-rule="nonzero"/><path fill="#c4e54a" d="M 17.027344 7.253906 C 16.9375 7.300781 16.871094 7.363281 16.824219 7.433594 C 16.78125 7.507812 16.769531 7.570312 16.796875 7.625 C 16.800781 7.640625 16.808594 7.652344 16.816406 7.660156 C 16.800781 7.535156 16.882812 7.421875 17.0625 7.328125 C 17.238281 7.230469 17.371094 7.230469 17.453125 7.320312 C 17.449219 7.304688 17.445312 7.292969 17.441406 7.28125 C 17.414062 7.226562 17.363281 7.195312 17.28125 7.191406 C 17.203125 7.183594 17.117188 7.207031 17.027344 7.253906 Z M 17.027344 7.253906 " fill-opacity="1" fill-rule="nonzero"/><path fill="#68a100" d="M 17.453125 7.320312 C 17.46875 7.445312 17.386719 7.558594 17.210938 7.652344 C 17.03125 7.75 16.898438 7.75 16.816406 7.660156 C 16.820312 7.675781 16.824219 7.6875 16.828125 7.699219 C 16.855469 7.753906 16.90625 7.785156 16.988281 7.789062 C 17.070312 7.796875 17.152344 7.773438 17.242188 7.726562 C 17.332031 7.679688 17.398438 7.617188 17.445312 7.546875 C 17.488281 7.472656 17.5 7.410156 17.472656 7.351562 C 17.46875 7.339844 17.460938 7.328125 17.453125 7.320312 Z M 17.453125 7.320312 " fill-opacity="1" fill-rule="nonzero"/><path fill="#fca66b" d="M 29.859375 11.136719 C 29.429688 11.128906 29.023438 11.621094 29.082031 11.816406 C 29.160156 12.0625 29.375 12.570312 29.273438 12.6875 C 29.175781 12.800781 28.671875 12.667969 28.578125 12.667969 C 28.558594 12.667969 28.453125 12.6875 28.304688 12.664062 C 28.335938 12.734375 26.875 12.746094 26.917969 12.808594 C 27.507812 12.8125 29.445312 12.824219 29.445312 12.824219 C 29.445312 12.824219 30.492188 12.824219 30.554688 12.433594 C 30.617188 12.042969 30.730469 11.738281 30.214844 11.28125 C 30.101562 11.183594 29.976562 11.140625 29.859375 11.136719 Z M 29.859375 11.136719 " fill-opacity="1" fill-rule="nonzero"/><path fill="#fc6f06" d="M 29.332031 11.324219 C 28.304688 7.75 26.128906 3.890625 23.308594 3.246094 L 23.214844 3.0625 C 26.226562 3.511719 28.644531 7.664062 29.332031 11.324219 Z M 29.332031 11.324219 " fill-opacity="1" fill-rule="nonzero"/><path fill="#af3902" d="M 21.570312 9.292969 C 21.476562 9.570312 21.457031 9.769531 21.554688 9.980469 C 21.636719 10.15625 21.90625 10.503906 22.539062 10.472656 C 23.113281 10.445312 23.90625 9.941406 23.78125 9.152344 C 23.628906 8.199219 22.433594 8.347656 22.101562 8.632812 C 21.773438 8.921875 21.636719 9.09375 21.570312 9.292969 Z M 21.570312 9.292969 " fill-opacity="1" fill-rule="nonzero"/><path fill="#e84c03" d="M 21.492188 9.167969 C 21.402344 9.445312 21.378906 9.644531 21.480469 9.855469 C 21.5625 10.03125 21.828125 10.378906 22.460938 10.347656 C 23.039062 10.320312 23.832031 9.816406 23.707031 9.027344 C 23.554688 8.074219 22.355469 8.222656 22.027344 8.507812 C 21.695312 8.796875 21.558594 8.96875 21.492188 9.167969 Z M 21.492188 9.167969 " fill-opacity="1" fill-rule="nonzero"/><path fill="#af3902" d="M 21.753906 9.195312 C 21.75 9.335938 21.914062 9.226562 21.753906 9.195312 Z M 21.753906 9.195312 " fill-opacity="1" fill-rule="nonzero"/><path fill="#af3902" d="M 22.609375 8.710938 C 22.515625 8.730469 22.609375 8.832031 22.65625 8.785156 C 22.691406 8.75 22.664062 8.683594 22.609375 8.710938 Z M 22.609375 8.710938 " fill-opacity="1" fill-rule="nonzero"/><path fill="#af3902" d="M 22.707031 9.457031 C 22.722656 9.421875 22.757812 9.421875 22.796875 9.421875 C 22.917969 9.421875 22.648438 9.75 22.707031 9.457031 Z M 22.707031 9.457031 " fill-opacity="1" fill-rule="nonzero"/><path fill="#af3902" d="M 22.199219 9.492188 C 22.351562 9.460938 22.175781 9.683594 22.175781 9.535156 C 22.175781 9.496094 22.171875 9.507812 22.199219 9.492188 Z M 22.199219 9.492188 " fill-opacity="1" fill-rule="nonzero"/><path fill="#af3902" d="M 23.34375 9.234375 C 23.304688 9.394531 23.464844 9.148438 23.34375 9.234375 Z M 23.34375 9.234375 " fill-opacity="1" fill-rule="nonzero"/><path fill="#af3902" d="M 22.449219 10.078125 C 22.597656 9.984375 22.449219 10.261719 22.449219 10.078125 Z M 22.449219 10.078125 " fill-opacity="1" fill-rule="nonzero"/><path fill="#af3902" d="M 22.085938 8.769531 C 22.09375 8.890625 22.1875 8.691406 22.085938 8.769531 Z M 22.085938 8.769531 " fill-opacity="1" fill-rule="nonzero"/><path fill="#af3902" d="M 21.847656 9.820312 C 21.933594 9.589844 21.625 9.929688 21.847656 9.820312 Z M 21.847656 9.820312 " fill-opacity="1" fill-rule="nonzero"/><path fill="#af3902" d="M 23.199219 9.773438 C 23.167969 9.769531 23.175781 9.773438 23.175781 9.746094 C 23.175781 9.636719 23.3125 9.859375 23.199219 9.773438 Z M 23.199219 9.773438 " fill-opacity="1" fill-rule="nonzero"/><path fill="#af3902" d="M 23.117188 8.726562 C 23.042969 8.660156 23.15625 8.570312 23.15625 8.703125 C 23.15625 8.734375 23.148438 8.726562 23.117188 8.726562 Z M 23.117188 8.726562 " fill-opacity="1" fill-rule="nonzero"/><g clip-path="url(#8e2691fed9)"><path fill="#fdd2b6" d="M 24.1875 1.886719 C 23.910156 1.894531 23.632812 1.984375 23.414062 2.175781 C 23.375 2.210938 23.339844 2.246094 23.308594 2.28125 C 26.902344 2.960938 29.496094 6.144531 30.601562 9.644531 C 30.3125 8.398438 29.730469 7.023438 29.074219 5.824219 C 27.859375 3.613281 25.429688 2.335938 24.976562 2.078125 C 24.75 1.949219 24.46875 1.875 24.1875 1.886719 Z M 24.1875 1.886719 " fill-opacity="1" fill-rule="nonzero"/></g></svg>